<svg xmlns="http://www.w3.org/2000/svg" id="Capa_1" viewBox="0 0 512 512"><path fill='#d2d2d2' d="M209.5 418.9V93.1c0-6.3-2.3-11.8-6.9-16.4-4.6-4.6-10.1-6.9-16.4-6.9-6.3 0-11.8 2.3-16.4 6.9L6.9 239.6C2.3 244.2 0 249.7 0 256s2.3 11.8 6.9 16.4l162.9 162.9c4.6 4.6 10.1 6.9 16.4 6.9 6.3 0 11.8-2.3 16.4-6.9 4.6-4.6 6.9-10.1 6.9-16.4zM302.6 93.1v325.8c0 6.3 2.3 11.8 6.9 16.4 4.6 4.6 10.1 6.9 16.4 6.9s11.8-2.3 16.4-6.9l162.9-162.9c4.6-4.6 6.9-10.1 6.9-16.4 0-6.3-2.3-11.8-6.9-16.4l-163-162.9c-4.6-4.6-10.1-6.9-16.4-6.9-6.3 0-11.8 2.3-16.4 6.9-4.6 4.6-6.8 10.1-6.8 16.4z" class="st0"/></svg>